<?xml version="1.0" standalone="no"?>
<!DOCTYPE svg PUBLIC "-//W3C//DTD SVG 20010904//EN"
 "http://www.w3.org/TR/2001/REC-SVG-20010904/DTD/svg10.dtd">
<svg version="1.0" xmlns="http://www.w3.org/2000/svg"
 width="250.000000pt" height="130.000000pt" viewBox="0 0 250.000000 130.000000"
 preserveAspectRatio="xMidYMid meet">

<g transform="translate(0.000000,130.000000) scale(0.100000,-0.100000)"
fill="#000000" stroke="none">
<path d="M273 891 l-173 -86 0 -53 0 -53 30 16 c21 11 30 23 30 40 0 22 17 33
143 96 l142 71 173 -86 172 -86 0 28 c0 25 -11 33 -172 113 l-173 86 -172 -86z"/>
<path d="M218 729 c-196 -98 -218 -112 -218 -134 0 -14 2 -25 4 -25 2 0 100
47 218 105 117 58 219 105 226 105 7 0 75 -32 152 -70 l140 -70 0 -78 0 -77
-145 -73 -145 -72 -145 72 -145 73 0 63 0 63 -30 -16 c-28 -15 -30 -19 -30
-75 l0 -60 175 -87 175 -88 170 85 170 85 0 107 0 108 -170 85 c-93 47 -173
85 -177 84 -5 0 -106 -49 -225 -110z"/>
<!-- BAUDRACCO -->
<!-- <path d="M890 730 l0 -80 34 0 c19 0 44 8 57 19 21 17 22 21 10 47 -8 16 -13
39 -12 51 3 25 -24 43 -63 43 -26 0 -26 -1 -26 -80z m60 35 c0 -8 -7 -15 -15
-15 -8 0 -15 7 -15 15 0 8 7 15 15 15 8 0 15 -7 15 -15z m8 -68 c2 -12 -3 -17
-17 -17 -15 0 -21 6 -21 21 0 25 33 22 38 -4z"/>
<path d="M1056 743 c-15 -37 -30 -73 -33 -80 -3 -7 2 -13 11 -13 9 0 19 7 22
15 4 10 20 15 45 15 26 0 42 -5 45 -15 4 -8 14 -15 24 -15 17 0 15 8 -15 78
-45 102 -61 105 -99 15z m52 -31 c-27 -5 -32 2 -18 29 l13 22 13 -24 c11 -22
11 -24 -8 -27z"/>
<path d="M1220 746 c0 -56 3 -67 22 -80 30 -21 61 -20 81 2 23 25 24 142 2
142 -10 0 -15 -16 -17 -62 -3 -60 -4 -63 -28 -63 -24 0 -25 3 -28 63 -2 46 -7
62 -17 62 -12 0 -15 -15 -15 -64z"/>
<path d="M1380 731 l0 -81 44 0 c58 0 96 29 96 75 0 51 -27 77 -88 83 l-52 5
0 -82z m94 33 c19 -18 21 -55 4 -72 -7 -7 -25 -12 -40 -12 -27 0 -28 2 -28 50
0 46 2 50 24 50 14 0 32 -7 40 -16z"/>
<path d="M1560 730 c0 -73 2 -80 20 -80 16 0 20 7 20 33 l0 32 21 -32 c12 -18
29 -33 40 -33 18 0 17 1 -2 35 -19 32 -19 36 -5 51 35 34 6 74 -55 74 l-39 0
0 -80z m73 35 c1 -5 -6 -11 -15 -13 -11 -2 -18 3 -18 13 0 17 30 18 33 0z"/>
<path d="M1736 743 c-15 -37 -30 -73 -33 -80 -3 -7 2 -13 11 -13 9 0 19 7 22
15 4 10 20 15 45 15 26 0 42 -5 45 -15 4 -8 14 -15 24 -15 17 0 15 8 -15 78
-45 102 -61 105 -99 15z m52 -31 c-27 -5 -32 2 -18 29 l13 22 13 -24 c11 -22
11 -24 -8 -27z"/>
<path d="M1935 799 c-71 -41 -55 -133 25 -145 41 -7 94 11 87 29 -2 6 -11 10
-18 8 -46 -13 -71 -12 -89 4 -51 46 16 109 79 76 9 -5 23 -6 30 -2 35 22 -76
52 -114 30z"/>
<path d="M2135 799 c-71 -41 -55 -133 25 -145 41 -7 94 11 87 29 -2 6 -11 10
-18 8 -46 -13 -71 -12 -89 4 -51 46 16 109 79 76 9 -5 23 -6 30 -2 35 22 -76
52 -114 30z"/>
<path d="M2334 801 c-26 -11 -54 -49 -54 -73 0 -9 11 -30 24 -45 20 -23 32
-28 71 -28 39 0 51 5 71 28 30 35 30 59 2 92 -25 28 -79 40 -114 26z m77 -31
c12 -7 19 -21 19 -41 0 -62 -101 -66 -108 -4 -6 46 42 70 89 45z"/> -->
<!-- CUADRADOS -->
<path d="M410 636 c0 -9 7 -16 16 -16 9 0 14 5 12 12 -6 18 -28 21 -28 4z"/>
<path d="M460 635 c0 -8 7 -15 15 -15 8 0 15 7 15 15 0 8 -7 15 -15 15 -8 0
-15 -7 -15 -15z"/>
<path d="M410 590 c0 -5 7 -10 15 -10 8 0 15 5 15 10 0 6 -7 10 -15 10 -8 0
-15 -4 -15 -10z"/>
<path d="M460 590 c0 -5 7 -10 15 -10 8 0 15 5 15 10 0 6 -7 10 -15 10 -8 0
-15 -4 -15 -10z"/>
</g>
</svg>
